
<svg version="1.1" id="Camada_1" xmlns="http://www.w3.org/2000/svg" xmlns:xlink="http://www.w3.org/1999/xlink" x="0px" y="0px"
	 viewBox="0 0 750 1334" enable-background="new 0 0 750 1334" xml:space="preserve">
<path id="aquario_2" d="M-1144.8,1076.9c-23.5-2-49-4.4-74.6-6.4c-14.4-1.2-28.9-1.8-43.3-3c-21.6-1.8-43.1-3.9-64.7-5.7
	c-14.2-1.2-28.4-1.8-42.6-3c-20.9-1.8-41.7-3.9-62.5-5.7c-13.2-1.2-26.5-1.9-39.7-3c-20.8-1.8-41.7-3.9-62.5-5.7
	c-7-0.6-14-1.1-20.9-1.5c-16.4-1-32.8-1.6-49.2-3c-25.2-2.1-50.3-4.9-75.4-7.2c-13.9-1.3-27.9-1.9-41.9-3
	c-21.6-1.8-43.1-3.9-64.7-5.7c-7-0.6-14-1-20.9-1.5c-20.4-1.5-40.9-2.9-61.3-4.4c-18.5-1.4-37-2.8-55.5-4.4
	c-22.6-1.9-45.1-3.9-67.6-5.8c-18.2-1.5-36.5-2.7-54.8-4.5c-22.7-2.2-45.4-4.5-68-7.3c-18.8-2.4-34.8-11.7-49.2-23.3
	c-18.9-15.1-32.8-34.3-39.2-57.9c-3.5-12.8-5.3-26.1-7.2-39.3c-2.4-16.9-4.1-33.8-5.8-50.8c-1.3-12.7-1.9-25.5-3.1-38.2
	c-1.7-17.9-3.8-35.8-5.7-53.7c-1.1-10.8-2-21.6-3.1-32.3c-1.9-19.1-3.9-38.3-5.7-57.4c-1.2-12.5-1.9-25-3.1-37.5
	c-1.7-17.7-3.9-35.3-5.7-53c-1.2-11.5-2-23-3.1-34.5c-1.8-18.9-3.9-37.8-5.7-56.7c-1.2-12-1.9-24-3.1-36c-1.8-17.7-3.9-35.3-5.7-53
	c-1.2-11.5-2-23-3.1-34.5c-1.9-19.9-3.9-39.7-5.8-59.6c-1.6-17-2.8-34.1-4.5-51.1c-1.7-17-3.9-33.9-5.6-50.8c-1.2-12-1.9-24-3.1-36
	c-1.8-18.4-3.5-36.8-5.8-55.2c-3-23.3-2-46.3,8-67.8c8.7-18.8,21.5-34.6,37.8-48c14.7-11.9,31.4-18.2,49-22.5
	c11.8-2.9,24.2-3.2,36.3-4.9c14.7-2,29.4-4.2,44.1-6.3c12.6-1.8,25.1-3.5,37.7-5.4c15.1-2.2,30.3-4.6,45.4-6.9
	c14.4-2.1,28.9-4.2,43.3-6.3c22.2-3.3,44.5-6.7,66.7-9.9c12.6-1.8,25.2-3,37.8-4.8c14.4-2,28.8-4.4,43.3-6.6
	c14.9-2.2,29.8-4.4,44.7-6.6c18.9-2.8,37.9-5.6,56.8-8.3c11.9-1.7,23.8-3.2,35.6-4.9c16.1-2.3,32.2-4.8,48.3-7.1
	c18.3-2.6,36.5-5,54.8-7.6c14.2-2,28.5-4,42.7-6.1c19.7-2.8,39.3-5.6,58.9-8.6c18.2-2.8,36.3-5.9,54.6-8.6
	c15.2-2.2,30.4-3.9,45.6-6.1c18.2-2.6,36.4-5.6,54.6-8.2c12.1-1.8,24.2-3.2,36.3-4.9c15.9-2.3,31.6-5.4,47.6-6.9
	c13.1-1.2,26.4-0.4,39.6-0.4c26.1,0.1,47.6,11.5,66.9,27.7c18.7,15.8,32.4,35.1,37.7,59.5c2.2,10,3.3,20.3,4.2,30.5
	c2.2,26.7,3.9,53.4,6,80.1c1.3,16.6,2.8,33.1,4.4,49.6c2.3,24.2,5,48.3,7.2,72.5c1.3,13.9,1.9,27.9,3.1,41.9
	c1.8,22.1,3.9,44.1,5.7,66.2c1.1,13.7,1.9,27.4,3.1,41.1c1.8,20.9,3.9,41.7,5.7,62.5c1.1,12.5,2,25,3,37.5
	c1.9,23.3,3.9,46.6,5.8,69.8c1.1,13.2,1.9,26.5,3,39.7c1.8,20.8,3.9,41.7,5.7,62.5c0.7,7.9,0.9,15.9,1.6,23.9
	c1.8,21.3,3.8,42.7,5.7,64c0.6,6.5,1,13,1.6,19.5c1.9,23,4,46.1,5.8,69.1c1.2,14.7,1.8,29.4,3,44.1c1.7,19.4,3.9,38.7,5.7,58.1
	c1.2,13.4,1.9,26.9,3,40.4c1.8,21.6,4,43.1,5.7,64.7c2.8,34.6-4.3,66.2-26.2,94.2c-18.2,23.2-42.3,36.3-69.9,43.9
	C-1128,1076.2-1135.5,1075.9-1144.8,1076.9z M-1992.9-61.8c-10.7,0.6-18.8,0.2-26.5,1.6c-25.4,4.8-44.1,19.8-58.4,40.6
	c-6.9,10.1-11.6,21-12,34c-0.4,12.1-4.1,24-5.4,36.1c-1.7,16.5-2.1,33.2-3.5,49.8c-1.7,19.2-4.1,38.3-5.7,57.4
	c-2.2,24.5-4,49-5.9,73.4c-2,24.7-3.6,49.5-6,74.1c-2.5,25.6-2.7,51.4-6.7,77c-2.6,16.7-1.9,33.8-3,50.7
	c-0.9,13.1-2.2,26.2-3.4,39.4c-0.4,4.8-0.9,9.6-1.3,14.5c-1.9,20.9-3.8,41.7-5.6,62.6c-1.3,15-2.4,30.1-3.4,45.2
	c-0.9,14.1-1.2,28.3-2.6,42.3c-1.4,14.7-4,29.2-5.7,43.9c-1.4,12.7-2.4,25.4-3.3,38.1c-1,14-1.9,28-2.6,42
	c-0.3,7.1,0.2,14.3-0.3,21.4c-0.5,7-2.1,13.9-3,20.9c-0.6,4.3-0.3,8.7-1.2,12.9c-5.4,24.7-3.7,49.1,4.6,72.7
	c5.8,16.6,16.7,29.8,30.9,41c11.1,8.8,23.8,14.1,36.5,16.9c14.8,3.3,30.8,2.5,46.1,1.7c18.7-0.9,37.3-3.8,56-5.6
	c4.5-0.4,9,0.3,13.5-0.1c18.6-1.8,37.2-4,55.8-5.7c5.4-0.5,10.9,0.3,16.2-0.3c17.3-1.7,34.6-3.9,52-5.6c5.6-0.5,11.3,0.1,17-0.3
	c8.2-0.6,16.3-1.7,24.4-2.4c15.2-1.2,30.4-2.2,45.6-3.5c21.1-1.8,42.1-3.9,63.2-5.7c8.4-0.7,16.9-0.7,25.4-1.5
	c18.4-1.8,36.8-4.2,55.2-5.8c20.9-1.8,41.9-2.9,62.9-4.5c23.8-1.8,47.5-4,71.3-5.8c9.9-0.8,19.8-0.8,29.7-1.6
	c21.8-1.7,43.6-3.7,65.5-5.5c11.3-0.9,22.5-1.7,33.8-2.7c14.3-1.4,28.6-3.3,42.9-4.5c22.3-1.8,42.5-7.6,60.5-22.1
	c24.7-19.9,32.9-46.7,36-76.3c0.8-7.5,1.5-14.9,2.3-22.4c1.6-16.3,3.3-32.5,4.9-48.8c1-10.6,1.8-21.2,2.9-31.7
	c0.7-6.6,2.3-13.2,2.9-19.8c1.7-18.1,3-36.1,4.6-54.2c1.9-21.2,3.7-42.3,5.9-63.4c2.2-21.8,4.9-43.6,7.1-65.4
	c2.5-24.9,4.8-49.9,7.1-74.9c0.6-7,0.6-14.1,1.2-21.1c0.9-10,2.4-20,3.4-30.1c1.6-15.5,3-31,4.5-46.5c2.3-22.8,5-45.6,7.1-68.4
	c1.8-20.2,3-40.4,4.6-60.5c0.4-5,1.8-10,2-15c0.5-15,2.4-30.2,0.3-44.9c-1.7-11.9-7.5-23.5-13.2-34.4c-8.6-16.5-23.1-28.2-40-34.4
	c-15.8-5.9-33.1-8-49.9-11c-9.3-1.7-19.1-1.3-28.5-2.7c-18.3-2.7-36.6-6.2-54.9-9.1c-8.1-1.3-16.3-1.5-24.4-2.7
	c-18.3-2.8-36.6-6.2-55-9c-8.1-1.3-16.3-1.5-24.4-2.8c-17.1-2.8-34.2-6.1-51.3-8.9c-13.8-2.2-27.7-4-41.5-5.9
	c-16.9-2.4-33.7-4.7-50.6-6.9c-5.5-0.7-11.1-0.6-16.6-1.4c-19.8-3-39.6-6.2-59.3-9.3c-14.6-2.3-29.1-4.7-43.7-6.8
	c-14.9-2.2-29.9-4-44.8-6c-14.3-1.9-28.6-4-42.9-5.9c-6.5-0.9-13.1-1.2-19.5-2.2c-9.6-1.5-19.2-3.5-28.9-4.8
	c-16.3-2.2-32.6-3.7-48.8-6.2c-19.2-3-38.3-7.4-57.5-10C-1963.8-60.6-1979.8-60.9-1992.9-61.8z"/>
<path id="aquario1" d="M-1353,829.3c-21.9-2-46.4-4.2-70.9-6.3c-6.2-0.6-12.5-1-18.7-1.5c-24.5-1.9-49-3.9-73.5-5.8
	c-13.9-1.1-27.9-1.8-41.9-3c-15.6-1.3-31.1-3.2-46.7-4.4c-23.4-1.7-46.9-2.7-70.3-4.5c-12.9-1-25.7-3.2-38.6-4.5
	c-8.2-0.8-16.5-0.6-24.7-1.3c-12.2-1.2-24.3-3.1-36.5-4.1c-10.4-0.9-21-0.8-31.4-1.7c-25.2-2.2-50.4-4.8-75.6-7.2
	c-12.2-1.1-24.5-2.5-36.7-2.9c-29.9-1.1-51.8-14.6-65.9-40.9c-5.5-10.2-7.8-21.1-8.5-32.8c-0.9-16.3-3.4-32.4-5.3-48.6
	c-1.1-10-2.2-20.1-3.3-30.1c-2.9-26.2-5.9-52.4-8.5-78.7c-0.9-9.4-0.4-18.9-0.9-28.3c-0.4-7.6-1.5-15.1-2.3-22.7
	c-1.4-12.5-2.9-25-4.3-37.4c-1.9-16.5-4.1-33-5.7-49.6c-1-10.1-0.7-20.2-1.6-30.3c-1.1-12.6-3-25.2-4.4-37.8
	c-1.4-13-2.7-26-3.9-38.9c-1.2-12-2.5-24-3.4-36c-0.8-10.5-0.9-21-1.6-31.4c-0.7-10-2.5-20-2.7-30c-0.2-12.6,4.2-23.9,11.1-34.7
	c7.4-11.6,17-20.3,28.8-26.3c7.9-4,17-6.4,25.8-7.9c20.5-3.5,41.1-6.3,61.7-9.1c14.1-1.9,28.3-3.2,42.4-5.3
	c17-2.5,33.9-5.7,50.9-8.3c13.3-2,26.7-3.4,40-5.4c16.5-2.5,33-5.5,49.5-8c13.3-2,26.6-3.4,39.9-5.2c11.2-1.5,22.3-2.8,33.5-4.5
	c20.7-3.2,41.3-6.7,61.9-9.8c18.6-2.8,37.2-4.9,55.7-7.7c21.3-3.2,42.4-7.9,63.7-9.8c27.5-2.4,54.6-9,82.6-8.1
	c20.3,0.6,36,8.4,49.7,22.2c13.2,13.4,19.2,29.4,20.2,48.4c1.3,24.2,4.6,48.3,7,72.4c0.7,7.1,1,14.1,1.5,21.2
	c1.5,21.7,2.7,43.3,4.5,65c1.1,13.1,3.1,26.1,4.4,39.2c0.7,7.5,0.6,15,1.4,22.5c1.1,9.5,3.2,18.9,4.1,28.4c0.7,8-0.3,16.2,0.4,24.2
	c0.8,10.7,2.7,21.4,3.7,32.1c0.6,6.1,0.2,12.2,0.6,18.3c1,20,4.9,39.7,4.8,60c-0.1,17.3,3.7,34.6,5.3,52c1.4,14.7,1.9,29.4,3.1,44.1
	c1.8,22.5,3.9,45,5.8,67.6c1.2,14.7,1.9,29.4,3.1,44c0.6,7.6,2.8,15.2,2.7,22.8c-0.2,11.3-0.3,22.9-3.2,33.7
	c-2.4,8.8-8,17.2-13.7,24.5c-11.2,14.3-26.2,23.6-44.3,27C-1338.2,829-1344.4,828.8-1353,829.3z M-1810.2,169.5
	c-0.2,0.6-0.4,1.1-0.7,1.7c2.2,1.7,4.3,3.5,6.6,4.9c19.1,11.4,38.1,23,54,38.9c6.2,6.2,7.4,14.8,2.2,19.7
	c-12.7,11.8-26.3,22.9-37.2,36.1c-18.2,22-28.4,48.1-28.4,76.8c0,13.9,2.2,28.5,6.6,41.7c4.4,13,5.8,30.2,25.9,32.9
	c-2.1,2.1-4,3.7-6.1,3.8c-6.4,0.3-12.1-0.3-18.3-4c-19.6-11.6-40-22-60.3-32.5c-9.4-4.8-19.1-9-28.9-12.7c-5.6-2.1-10.8-1-15.3,4.7
	c-9.4,11.8-13.5,25.7-18,39.5c-4.8,14.6-4.4,29.9-4.6,45.1c-0.2,14.7,4.6,27.9,11.1,40.4c7.8,14.9,19.4,26.8,33.1,36.9
	c10.6,7.8,16.4,8.9,26.8,0.1c15-12.8,29.8-25.7,43.6-39.7c7.3-7.4,13.3-14.9,24.7-15.4c3.6-0.2,6.7-5.6,10.8-0.8
	c2.6,3.1,5.3,6.1,9,10.5c-4.6-0.9-7.4-2-10.1-1.8c-11.8,0.9-22.2,4.3-27.6,16.3c-3,6.6-7,12.7-9.7,19.4
	c-11.2,27.3-19.6,55-13.1,85.1c3.5,15.8,9.9,30.3,21,42c9.3,9.8,19.9,18.3,31,28.4c-24.1,24.4-50.8,44.5-80.6,61.1
	c8-0.8,15.6-2.8,23.2-4.6c15.3-3.7,30.9-6.5,46-11.1c16.7-5.1,32.9-11.7,49.3-17.9c16.3-6.1,32.9-11.5,48.6-18.8
	c20.5-9.6,40.3-20.7,60.4-31.2c30-15.8,57.6-35.2,84.3-55.9c8.1-6.3,16-12.7,24-19c0.4,0.3,0.7,0.6,1.1,1
	c-9.6,20.9-19.2,41.8-29.5,64.1c3.9-0.9,5.5-1.3,7.2-1.7c0.6,0.6,1.3,1.2,1.9,1.8c-12,16.8-24.1,33.5-37.5,52.2
	c4.1-1.7,6.5-2.2,8.2-3.5c15.1-12,31-23.2,44.9-36.6c23-22.2,40.9-48.4,55-77.2c9.6-19.7,17.6-39.9,21.9-61.4
	c2.4-11.8,7.8-20.8,16.3-29.3c18.2-18.1,35.3-37.4,52.7-56.5c1.9-2.1,2.4-5.6,3.7-8.8c-3.7-0.6-5.9-0.9-8.2-1.2
	c-0.3-0.7-0.5-1.4-0.8-2.1c3.9-2.2,7.8-4.4,12.8-7.3c-2.4-1.4-4-2.9-5.9-3.4c-10.6-3.1-18.5-10-25.1-18.4
	c-8.4-10.7-15.3-22.7-24.8-32.2c-17.7-17.6-36.5-34.2-55.5-50.5c-8.9-7.6-19.9-12.6-28.9-20.1c-29.4-24.6-61.2-45.8-95.5-62.6
	c-25.7-12.6-52.3-23.2-78.8-34c-13.9-5.7-28.4-10.1-42.8-14.6c-11.3-3.5-22.8-6.1-34.2-9.2c-6.6-1.8-13.2-3.9-19.9-5.4
	C-1795.8,171.7-1803,170.7-1810.2,169.5z"/>
<path id="peixe" fill="#FFFFFF" d="M-1810.2,169.5c7.2,1.2,14.4,2.2,21.5,3.7c6.7,1.5,13.2,3.6,19.9,5.4c11.4,3.1,23,5.7,34.2,9.2
	c14.4,4.5,28.9,8.9,42.8,14.6c26.5,10.8,53.2,21.4,78.8,34c34.4,16.8,66.1,38,95.5,62.6c9,7.5,20,12.5,28.9,20.1
	c19,16.3,37.8,32.8,55.5,50.5c9.5,9.5,16.4,21.6,24.8,32.2c6.6,8.4,14.5,15.3,25.1,18.4c1.9,0.6,3.6,2,5.9,3.4
	c-5,2.9-8.9,5.1-12.8,7.3c0.3,0.7,0.5,1.4,0.8,2.1c2.2,0.3,4.4,0.7,8.2,1.2c-1.3,3.2-1.7,6.6-3.7,8.8c-17.3,19-34.4,38.3-52.7,56.5
	c-8.6,8.5-14,17.5-16.3,29.3c-4.3,21.4-12.3,41.7-21.9,61.4c-14.1,28.8-32,55-55,77.2c-13.8,13.4-29.8,24.6-44.9,36.6
	c-1.7,1.3-4.1,1.8-8.2,3.5c13.4-18.6,25.4-35.4,37.5-52.2c-0.6-0.6-1.3-1.2-1.9-1.8c-1.6,0.4-3.3,0.8-7.2,1.7
	c10.2-22.3,19.9-43.2,29.5-64.1c-0.4-0.3-0.7-0.6-1.1-1c-8,6.3-15.9,12.7-24,19c-26.7,20.7-54.3,40.1-84.3,55.9
	c-20.1,10.5-39.8,21.7-60.4,31.2c-15.7,7.3-32.4,12.7-48.6,18.8c-16.4,6.1-32.6,12.8-49.3,17.9c-15.1,4.6-30.7,7.4-46,11.1
	c-7.6,1.8-15.2,3.8-23.2,4.6c29.8-16.6,56.6-36.7,80.6-61.1c-11.2-10.1-21.7-18.6-31-28.4c-11.1-11.7-17.5-26.1-21-42
	c-6.6-30.1,1.9-57.8,13.1-85.1c2.7-6.7,6.7-12.8,9.7-19.4c5.4-12,15.8-15.4,27.6-16.3c2.7-0.2,5.5,0.9,10.1,1.8
	c-3.8-4.4-6.4-7.4-9-10.5c-4.1-4.8-7.2,0.6-10.8,0.8c-11.4,0.5-17.4,8.1-24.7,15.4c-13.8,14-28.6,27-43.6,39.7
	c-10.3,8.8-16.1,7.7-26.8-0.1c-13.7-10.1-25.3-22-33.1-36.9c-6.5-12.5-11.3-25.7-11.1-40.4c0.2-15.2-0.2-30.5,4.6-45.1
	c4.5-13.8,8.6-27.7,18-39.5c4.5-5.7,9.6-6.8,15.3-4.7c9.9,3.6,19.6,7.9,28.9,12.7c20.3,10.4,40.7,20.8,60.3,32.5
	c6.2,3.7,12,4.3,18.3,4c2-0.1,4-1.7,6.1-3.8c-20-2.7-21.5-19.9-25.9-32.9c-4.4-13.2-6.7-27.7-6.6-41.7c0.1-28.7,10.2-54.8,28.4-76.8
	c11-13.2,24.6-24.3,37.2-36.1c5.3-4.9,4-13.6-2.2-19.7c-15.9-15.9-34.9-27.5-54-38.9c-2.3-1.4-4.4-3.3-6.6-4.9
	C-1810.6,170.7-1810.4,170.1-1810.2,169.5z"/>
</svg>
